<svg width="13" height="17" viewBox="0 0 13 17" fill="none" xmlns="http://www.w3.org/2000/svg">
<path fill-rule="evenodd" clip-rule="evenodd" d="M8.14 13.6512C6.81521 13.6512 5.54468 13.1249 4.60792 12.1882C3.67115 11.2514 3.14488 9.98089 3.14488 8.6561C3.14488 7.33131 3.67115 6.06078 4.60792 5.12401C5.54468 4.18725 6.81521 3.66098 8.14 3.66098C9.15464 3.66098 10.0912 3.93415 10.8717 4.48049L12.8229 2.45122C11.662 1.57872 10.2808 1.0474 8.83442 0.917015C7.38807 0.786632 5.93403 1.06236 4.63583 1.71318C3.33762 2.36401 2.24673 3.36412 1.48586 4.60104C0.724977 5.83796 0.324282 7.26264 0.328835 8.71484C0.333387 10.167 0.743006 11.5892 1.51162 12.8213C2.28024 14.0534 3.37738 15.0467 4.67964 15.6894C5.9819 16.332 7.43764 16.5986 8.88314 16.4592C10.3286 16.3197 11.7066 15.7798 12.862 14.9L10.9107 12.8707C10.0931 13.3858 9.14535 13.6565 8.17903 13.6512H8.14Z" fill="white" fill-opacity="0.85"/>
</svg>
