<svg width="17" height="17" viewBox="0 0 17 17" fill="none" xmlns="http://www.w3.org/2000/svg">
<path fill-rule="evenodd" clip-rule="evenodd" d="M8.14001 0.697502C3.72251 0.697502 0.140015 4.27906 0.140015 8.6975C0.140015 12.2316 2.43189 15.2288 5.61126 16.2881C6.01126 16.3616 6.1572 16.1144 6.1572 15.9025C6.1572 15.7125 6.15033 15.2094 6.14626 14.5419C3.92126 15.0259 3.45251 13.4688 3.45251 13.4688C3.08876 12.5447 2.56439 12.2984 2.56439 12.2984C1.8372 11.8034 2.61845 11.8125 2.61845 11.8125C3.42126 11.8691 3.84376 12.6369 3.84376 12.6369C4.55751 13.8594 5.71626 13.5063 6.17189 13.3016C6.2447 12.7847 6.45126 12.4322 6.6797 12.2322C4.90345 12.0313 3.03595 11.3438 3.03595 8.27938C3.03595 7.40594 3.34845 6.69188 3.85939 6.13281C3.7772 5.93031 3.50251 5.11719 3.93783 4.01563C3.93783 4.01563 4.60939 3.80063 6.13783 4.83563C7.4489 4.47659 8.83238 4.47659 10.1435 4.83563C11.6706 3.80031 12.3413 4.01563 12.3413 4.01563C12.7788 5.11719 12.5031 5.93031 12.421 6.13281C12.9338 6.69219 13.2431 7.40625 13.2431 8.27938C13.2431 11.3528 11.3728 12.0294 9.59064 12.2269C9.87783 12.4738 10.1338 12.9622 10.1338 13.7084C10.1338 14.7778 10.1241 15.6406 10.1241 15.9031C10.1241 16.1172 10.2681 16.3659 10.6741 16.2878C13.85 15.2278 16.14 12.2313 16.14 8.69813C16.14 4.27938 12.5578 0.697502 8.14001 0.697502Z" fill="white" fill-opacity="0.85"/>
</svg>
