<svg width="17" height="13" viewBox="0 0 17 13" fill="none" xmlns="http://www.w3.org/2000/svg">
<path d="M5.16595 13.005C11.2035 13.005 14.5072 7.99813 14.5072 3.66375C14.5072 3.52281 14.5072 3.3825 14.501 3.24125C15.1441 2.77537 15.6991 2.19865 16.14 1.53813C15.5395 1.80326 14.903 1.97808 14.2513 2.05688C14.9379 1.64599 15.452 0.999827 15.6981 0.238438C15.0531 0.620548 14.347 0.888736 13.611 1.03125C13.1604 0.55105 12.5759 0.217369 11.9334 0.0735205C11.2908 -0.0703279 10.6199 -0.0177002 10.0076 0.224572C9.39535 0.466844 8.87005 0.887573 8.4999 1.43214C8.12975 1.97671 7.93185 2.61998 7.93189 3.27844C7.93346 3.53065 7.96132 3.78201 8.01501 4.02844C5.28751 3.89406 2.8672 2.58156 1.24751 0.596563C0.829376 1.32038 0.701855 2.17603 0.890764 2.99032C1.07967 3.80461 1.5709 4.51672 2.26501 4.9825C1.74464 4.96427 1.23584 4.82393 0.779702 4.57281V4.6175C0.78035 5.37527 1.04256 6.10959 1.52203 6.69638C2.00149 7.28318 2.66882 7.68647 3.41126 7.83813C2.92895 7.96897 2.42322 7.98863 1.9322 7.89563C2.14159 8.5481 2.54989 9.1187 3.09987 9.52746C3.64985 9.93621 4.31394 10.1626 4.99908 10.175C3.83656 11.0892 2.40016 11.5854 0.921265 11.5838C0.660175 11.585 0.399258 11.5701 0.140015 11.5391C1.64126 12.497 3.38511 13.0058 5.16595 13.0053" fill="white" fill-opacity="0.85"/>
</svg>
