<svg width="17" height="17" viewBox="0 0 17 17" fill="none" xmlns="http://www.w3.org/2000/svg">
<g clip-path="url(#clip0_1_902)">
<path d="M8.92004 12.5C9.98091 12.5 10.9983 12.0786 11.7485 11.3284C12.4986 10.5783 12.92 9.56087 12.92 8.5C12.92 7.43913 12.4986 6.42172 11.7485 5.67157C10.9983 4.92143 9.98091 4.5 8.92004 4.5C7.85918 4.5 6.84176 4.92143 6.09162 5.67157C5.34147 6.42172 4.92004 7.43913 4.92004 8.5C4.92004 9.56087 5.34147 10.5783 6.09162 11.3284C6.84176 12.0786 7.85918 12.5 8.92004 12.5ZM8.92004 0.5C9.05265 0.5 9.17983 0.552678 9.2736 0.646447C9.36737 0.740215 9.42004 0.867392 9.42004 1V3C9.42004 3.13261 9.36737 3.25979 9.2736 3.35355C9.17983 3.44732 9.05265 3.5 8.92004 3.5C8.78744 3.5 8.66026 3.44732 8.56649 3.35355C8.47272 3.25979 8.42004 3.13261 8.42004 3V1C8.42004 0.867392 8.47272 0.740215 8.56649 0.646447C8.66026 0.552678 8.78744 0.5 8.92004 0.5ZM8.92004 13.5C9.05265 13.5 9.17983 13.5527 9.2736 13.6464C9.36737 13.7402 9.42004 13.8674 9.42004 14V16C9.42004 16.1326 9.36737 16.2598 9.2736 16.3536C9.17983 16.4473 9.05265 16.5 8.92004 16.5C8.78744 16.5 8.66026 16.4473 8.56649 16.3536C8.47272 16.2598 8.42004 16.1326 8.42004 16V14C8.42004 13.8674 8.47272 13.7402 8.56649 13.6464C8.66026 13.5527 8.78744 13.5 8.92004 13.5ZM16.92 8.5C16.92 8.63261 16.8674 8.75979 16.7736 8.85355C16.6798 8.94732 16.5527 9 16.42 9H14.42C14.2874 9 14.1603 8.94732 14.0665 8.85355C13.9727 8.75979 13.92 8.63261 13.92 8.5C13.92 8.36739 13.9727 8.24021 14.0665 8.14645C14.1603 8.05268 14.2874 8 14.42 8H16.42C16.5527 8 16.6798 8.05268 16.7736 8.14645C16.8674 8.24021 16.92 8.36739 16.92 8.5ZM3.92004 8.5C3.92004 8.63261 3.86737 8.75979 3.7736 8.85355C3.67983 8.94732 3.55265 9 3.42004 9H1.42004C1.28744 9 1.16026 8.94732 1.06649 8.85355C0.972722 8.75979 0.920044 8.63261 0.920044 8.5C0.920044 8.36739 0.972722 8.24021 1.06649 8.14645C1.16026 8.05268 1.28744 8 1.42004 8H3.42004C3.55265 8 3.67983 8.05268 3.7736 8.14645C3.86737 8.24021 3.92004 8.36739 3.92004 8.5ZM14.577 2.843C14.6708 2.93676 14.7234 3.06392 14.7234 3.1965C14.7234 3.32908 14.6708 3.45624 14.577 3.55L13.163 4.965C13.1166 5.01142 13.0614 5.04823 13.0007 5.07333C12.94 5.09843 12.8749 5.11132 12.8092 5.11128C12.6765 5.11118 12.5493 5.05839 12.4555 4.9645C12.4091 4.91801 12.3723 4.86284 12.3472 4.80212C12.3221 4.74141 12.3092 4.67634 12.3093 4.61065C12.3094 4.47796 12.3622 4.35075 12.456 4.257L13.87 2.843C13.9638 2.74926 14.091 2.69661 14.2235 2.69661C14.3561 2.69661 14.4833 2.74926 14.577 2.843ZM5.38404 12.036C5.47778 12.1298 5.53044 12.2569 5.53044 12.3895C5.53044 12.5221 5.47778 12.6492 5.38404 12.743L3.97004 14.157C3.87574 14.2481 3.74944 14.2985 3.61834 14.2973C3.48725 14.2962 3.36184 14.2436 3.26913 14.1509C3.17643 14.0582 3.12385 13.9328 3.12271 13.8017C3.12157 13.6706 3.17196 13.5443 3.26304 13.45L4.67704 12.036C4.77081 11.9423 4.89796 11.8896 5.03054 11.8896C5.16313 11.8896 5.29028 11.9423 5.38404 12.036ZM14.577 14.157C14.4833 14.2507 14.3561 14.3034 14.2235 14.3034C14.091 14.3034 13.9638 14.2507 13.87 14.157L12.456 12.743C12.365 12.6487 12.3146 12.5224 12.3157 12.3913C12.3168 12.2602 12.3694 12.1348 12.4621 12.0421C12.5548 11.9494 12.6802 11.8968 12.8113 11.8957C12.9424 11.8945 13.0687 11.9449 13.163 12.036L14.577 13.45C14.6708 13.5438 14.7234 13.6709 14.7234 13.8035C14.7234 13.9361 14.6708 14.0632 14.577 14.157ZM5.38404 4.965C5.29028 5.05874 5.16313 5.11139 5.03054 5.11139C4.89796 5.11139 4.77081 5.05874 4.67704 4.965L3.26304 3.55C3.21529 3.50388 3.1772 3.4487 3.15099 3.3877C3.12479 3.3267 3.111 3.26109 3.11042 3.1947C3.10984 3.12831 3.12249 3.06247 3.14763 3.00102C3.17277 2.93957 3.2099 2.88375 3.25685 2.8368C3.30379 2.78986 3.35962 2.75273 3.42107 2.72759C3.48252 2.70245 3.54835 2.6898 3.61474 2.69037C3.68113 2.69095 3.74674 2.70474 3.80775 2.73095C3.86875 2.75715 3.92392 2.79524 3.97004 2.843L5.38404 4.257C5.43061 4.30345 5.46755 4.35862 5.49276 4.41937C5.51796 4.48011 5.53094 4.54523 5.53094 4.611C5.53094 4.67677 5.51796 4.74189 5.49276 4.80263C5.46755 4.86338 5.43061 4.91855 5.38404 4.965Z" fill="white" fill-opacity="0.85"/>
</g>
<defs>
<clipPath id="clip0_1_902">
<rect width="16" height="16" fill="white" transform="translate(0.920044 0.5)"/>
</clipPath>
</defs>
</svg>
